<svg viewBox="0 0 500 800" xmlns="http://www.w3.org/2000/svg">
<path d="M 18 0
      L 482 0
      Q 500 0 500 18
      L 500 782
      Q 500 800 482 800
      L 18 800
      Q 0 800 0 782
      L 0 18
      Q 0 0 18 0 Z"
      fill="#F3EFE9" stroke="#0A0A0A" stroke-width="1.5"/>
    <circle cx="250.0" cy="70" r="14" fill="none" stroke="#0A0A0A" stroke-width="1.5"/>
<text x="250.0" y="150" text-anchor="middle" font-family="Inter" font-weight="500" font-size="17" letter-spacing="1" fill="#0A0A0A">Considered goods for everyday life.</text>
<text x="250.0" y="176" text-anchor="middle" font-family="Inter" font-weight="400" font-size="17" letter-spacing="1" fill="#0A0A0A">Built to last, designed to be lived in.</text>

<line x1="60" y1="230" x2="440" y2="230" stroke="#0A0A0A" stroke-width="1" opacity="0.25"/>

<text x="60" y="280" font-family="Inter" font-weight="600" font-size="13" letter-spacing="3" fill="#9A4B2E">MATERIAL</text>
<line x1="180" y1="276" x2="440" y2="276" stroke="#0A0A0A" stroke-width="1" opacity="0.3"/>

<text x="60" y="330" font-family="Inter" font-weight="600" font-size="13" letter-spacing="3" fill="#9A4B2E">CARE</text>
<line x1="180" y1="326" x2="440" y2="326" stroke="#0A0A0A" stroke-width="1" opacity="0.3"/>

<text x="60" y="380" font-family="Inter" font-weight="600" font-size="13" letter-spacing="3" fill="#9A4B2E">MADE IN</text>
<line x1="180" y1="376" x2="440" y2="376" stroke="#0A0A0A" stroke-width="1" opacity="0.3"/>

<line x1="60" y1="430" x2="440" y2="430" stroke="#0A0A0A" stroke-width="1" opacity="0.25"/>

<text x="250.0" y="710" text-anchor="middle" font-family="Inter" font-weight="400" font-size="12" letter-spacing="2" fill="#0A0A0A" opacity="0.5">NO. ______</text>
<text x="250.0" y="750" text-anchor="middle" font-family="Inter" font-weight="400" font-size="13" letter-spacing="2" fill="#0A0A0A" opacity="0.55">SHOPPEN.COM</text>
</svg>